# xmcd
#
# Track frame offsets: 
#        150
#        16852
#        40419
#        64416
#        87199
#        116603
#        142375
#        160812
#        184302
#        201982
#
# Disc length: 2915 seconds
#
# Revision: 0
# Processed by: cddbd v1.5.2PL0 Copyright (c) Steve Scherf et al.
# Submitted via: ExactAudioCopy v1.0b3
#
DISCID=930b610a
DTITLE=Son Tuyen - Pho Vang Em Roi
DYEAR=2003
DGENRE=
TTITLE0=Chut ky niem buon
TTITLE1=Pho vang em roi
TTITLE2=Em ve voi nguoi
TTITLE3=Dang do
TTITLE4=Mua bong bong
TTITLE5=Xua di huyen thoai
TTITLE6=Co Tam ngay nay
TTITLE7=Thuong ve Co Do
TTITLE8=Chim sao ngay xua
TTITLE9=Vo ngua tren doi co non
EXTD=
EXTT0=
EXTT1=
EXTT2=
EXTT3=
EXTT4=
EXTT5=
EXTT6=
EXTT7=
EXTT8=
EXTT9=
PLAYORDER=
